# xmcd
#
# Track frame offsets: 
#        150
#        1999
#        16539
#        34940
#        52964
#        71476
#        89901
#        102417
#        120285
#        137128
#        162533
#        180593
#        187651
#
# Disc length: 2793 seconds
#
# Revision: 0
# Processed by: cddbd v1.5.2PL0 Copyright (c) Steve Scherf et al.
# Submitted via: ExactAudioCopy v0.95b4
#
DISCID=a00ae70d
DTITLE=Willie Isz - Georgiavania
DYEAR=2009
DGENRE=Hip-Hop
TTITLE0=Willie Intro
TTITLE1=Blast Off
TTITLE2=Georgiavania
TTITLE3=Loner
TTITLE4=Gawn Jet
TTITLE5=I Didn't Mean To...
TTITLE6=U Want Some?
TTITLE7=Prepare Fo It (Spiritual Gladiators)
TTITLE8=The Grussle
TTITLE9=Violet Heart Box
TTITLE10=Autopilot
TTITLE11=Shine
TTITLE12=In the Red
EXTD=
EXTT0=
EXTT1=
EXTT2=
EXTT3=
EXTT4=
EXTT5=
EXTT6=
EXTT7=
EXTT8=
EXTT9=
EXTT10=
EXTT11=
EXTT12=
PLAYORDER=
